<mxfile host="app.diagrams.net" modified="2024-05-11T04:39:03.770Z" agent="Mozilla/5.0 (Windows NT 10.0; Win64; x64; rv:124.0) Gecko/20100101 Firefox/124.0" version="24.3.1" etag="sS5AmecvPW5wq0BPnzKJ" type="github">
  <diagram name="第 1 页" id="u_xker2RzeDLt2xojLX6">
    <mxGraphModel>
      <root>
        <mxCell id="0" />
        <mxCell id="1" parent="0" />
      </root>
    </mxGraphModel>
  </diagram>
</mxfile>
